<mxfile host="app.diagrams.net" modified="2024-06-29T12:23:39.408Z" agent="Mozilla/5.0 (Windows NT 10.0; Win64; x64; rv:127.0) Gecko/20100101 Firefox/127.0" etag="wSLBYC9Pfju_X89K0Agq" version="24.5.2" type="device">
  <diagram name="Strona-1" id="6HkIy6ulbnla7I3tChoI">
    <mxGraphModel dx="989" dy="520" grid="1" gridSize="10" guides="1" tooltips="1" connect="1" arrows="1" fold="1" page="1" pageScale="1" pageWidth="827" pageHeight="1169" math="0" shadow="0">
      <root>
        <mxCell id="0" />
        <mxCell id="1" parent="0" />
        <mxCell id="0xC4HbDB4452kfhdaKBw-1" value="&lt;div&gt;Rasbperry Pi 4B&lt;/div&gt;" style="rounded=0;whiteSpace=wrap;html=1;fillColor=#f8cecc;strokeColor=#b85450;" parent="1" vertex="1">
          <mxGeometry x="111" y="310" width="160" height="80" as="geometry" />
        </mxCell>
        <mxCell id="0xC4HbDB4452kfhdaKBw-2" value="" style="rounded=0;whiteSpace=wrap;html=1;fillColor=#f5f5f5;fontColor=#333333;strokeColor=#666666;" parent="1" vertex="1">
          <mxGeometry x="330" y="190" width="446" height="200" as="geometry" />
        </mxCell>
        <mxCell id="0xC4HbDB4452kfhdaKBw-3" value="Przetwornik A/C" style="rounded=0;whiteSpace=wrap;html=1;" parent="1" vertex="1">
          <mxGeometry x="493" y="300" width="120" height="60" as="geometry" />
        </mxCell>
        <mxCell id="0xC4HbDB4452kfhdaKBw-7" value="Przekaźniki" style="rounded=0;whiteSpace=wrap;html=1;" parent="1" vertex="1">
          <mxGeometry x="493" y="220" width="120" height="60" as="geometry" />
        </mxCell>
        <mxCell id="0xC4HbDB4452kfhdaKBw-8" value="Generator PWM" style="rounded=0;whiteSpace=wrap;html=1;" parent="1" vertex="1">
          <mxGeometry x="630" y="220" width="120" height="60" as="geometry" />
        </mxCell>
        <mxCell id="0xC4HbDB4452kfhdaKBw-9" value="Zegar RTC" style="rounded=0;whiteSpace=wrap;html=1;" parent="1" vertex="1">
          <mxGeometry x="360" y="300" width="120" height="60" as="geometry" />
        </mxCell>
        <mxCell id="0xC4HbDB4452kfhdaKBw-11" value="Wyprowadzenia służące do komunikacji" style="rounded=0;whiteSpace=wrap;html=1;" parent="1" vertex="1">
          <mxGeometry x="630" y="300" width="120" height="60" as="geometry" />
        </mxCell>
        <mxCell id="0xC4HbDB4452kfhdaKBw-20" value="&lt;div&gt;Czujniki:&lt;/div&gt;&lt;div&gt;- Temperatur i wilgotność powietrza&lt;/div&gt;&lt;div&gt;- Dwutlenek węgla&lt;/div&gt;&lt;div&gt;- Czujnik oświetlenia&lt;br&gt;&lt;/div&gt;" style="rounded=0;whiteSpace=wrap;html=1;fillColor=#d5e8d4;strokeColor=#82b366;" parent="1" vertex="1">
          <mxGeometry x="330" y="450" width="210" height="80" as="geometry" />
        </mxCell>
        <mxCell id="0xC4HbDB4452kfhdaKBw-44" value="Pompa&amp;nbsp; wody" style="rounded=0;whiteSpace=wrap;html=1;" parent="1" vertex="1">
          <mxGeometry x="617" y="40" width="159" height="80" as="geometry" />
        </mxCell>
        <mxCell id="0xC4HbDB4452kfhdaKBw-46" value="Sterowniki&amp;nbsp; diod" style="rounded=0;whiteSpace=wrap;html=1;" parent="1" vertex="1">
          <mxGeometry x="111" y="190" width="159" height="80" as="geometry" />
        </mxCell>
        <mxCell id="0xC4HbDB4452kfhdaKBw-47" value="" style="endArrow=classic;html=1;rounded=0;entryX=1;entryY=0.5;entryDx=0;entryDy=0;exitX=-0.002;exitY=0.2;exitDx=0;exitDy=0;exitPerimeter=0;" parent="1" source="0xC4HbDB4452kfhdaKBw-2" target="0xC4HbDB4452kfhdaKBw-46" edge="1">
          <mxGeometry width="50" height="50" relative="1" as="geometry">
            <mxPoint x="320" y="230" as="sourcePoint" />
            <mxPoint x="320" y="240" as="targetPoint" />
          </mxGeometry>
        </mxCell>
        <mxCell id="0xC4HbDB4452kfhdaKBw-49" value="Urządzenie" style="text;html=1;align=center;verticalAlign=middle;whiteSpace=wrap;rounded=0;" parent="1" vertex="1">
          <mxGeometry x="523" y="160" width="60" height="30" as="geometry" />
        </mxCell>
        <mxCell id="_fzHNz17hyEvUJ23iAKj-1" value="" style="endArrow=classic;startArrow=classic;html=1;rounded=0;exitX=1;exitY=0.5;exitDx=0;exitDy=0;entryX=0.001;entryY=0.803;entryDx=0;entryDy=0;entryPerimeter=0;" edge="1" parent="1" source="0xC4HbDB4452kfhdaKBw-1" target="0xC4HbDB4452kfhdaKBw-2">
          <mxGeometry width="50" height="50" relative="1" as="geometry">
            <mxPoint x="340" y="450" as="sourcePoint" />
            <mxPoint x="310" y="350" as="targetPoint" />
          </mxGeometry>
        </mxCell>
        <mxCell id="_fzHNz17hyEvUJ23iAKj-3" value="" style="endArrow=classic;html=1;rounded=0;exitX=0.5;exitY=1;exitDx=0;exitDy=0;entryX=0.179;entryY=0;entryDx=0;entryDy=0;entryPerimeter=0;" edge="1" parent="1" source="_fzHNz17hyEvUJ23iAKj-4" target="0xC4HbDB4452kfhdaKBw-2">
          <mxGeometry width="50" height="50" relative="1" as="geometry">
            <mxPoint x="445" y="120" as="sourcePoint" />
            <mxPoint x="410" y="170" as="targetPoint" />
          </mxGeometry>
        </mxCell>
        <mxCell id="_fzHNz17hyEvUJ23iAKj-4" value="Zewnętrzny&amp;nbsp; zasilacz" style="rounded=0;whiteSpace=wrap;html=1;" vertex="1" parent="1">
          <mxGeometry x="330" y="40" width="159" height="80" as="geometry" />
        </mxCell>
        <mxCell id="_fzHNz17hyEvUJ23iAKj-5" value="Panel LED" style="rounded=0;whiteSpace=wrap;html=1;" vertex="1" parent="1">
          <mxGeometry x="111" y="40" width="159" height="80" as="geometry" />
        </mxCell>
        <mxCell id="_fzHNz17hyEvUJ23iAKj-7" value="" style="endArrow=classic;html=1;rounded=0;exitX=0.5;exitY=0;exitDx=0;exitDy=0;entryX=0.5;entryY=1;entryDx=0;entryDy=0;" edge="1" parent="1" source="0xC4HbDB4452kfhdaKBw-46" target="_fzHNz17hyEvUJ23iAKj-5">
          <mxGeometry width="50" height="50" relative="1" as="geometry">
            <mxPoint x="210" y="190" as="sourcePoint" />
            <mxPoint x="260" y="140" as="targetPoint" />
          </mxGeometry>
        </mxCell>
        <mxCell id="_fzHNz17hyEvUJ23iAKj-8" value="Regulator napięcia" style="rounded=0;whiteSpace=wrap;html=1;" vertex="1" parent="1">
          <mxGeometry x="360" y="220" width="120" height="60" as="geometry" />
        </mxCell>
        <mxCell id="_fzHNz17hyEvUJ23iAKj-9" value="Miernik&amp;nbsp; składu&amp;nbsp; gleby" style="rounded=0;whiteSpace=wrap;html=1;fillColor=#f8cecc;strokeColor=#b85450;" vertex="1" parent="1">
          <mxGeometry x="617" y="450" width="159" height="80" as="geometry" />
        </mxCell>
        <mxCell id="_fzHNz17hyEvUJ23iAKj-11" value="" style="endArrow=classic;startArrow=classic;html=1;rounded=0;exitX=0.5;exitY=0;exitDx=0;exitDy=0;entryX=0.822;entryY=1.007;entryDx=0;entryDy=0;entryPerimeter=0;" edge="1" parent="1" source="_fzHNz17hyEvUJ23iAKj-9" target="0xC4HbDB4452kfhdaKBw-2">
          <mxGeometry width="50" height="50" relative="1" as="geometry">
            <mxPoint x="670" y="520" as="sourcePoint" />
            <mxPoint x="720" y="470" as="targetPoint" />
          </mxGeometry>
        </mxCell>
        <mxCell id="_fzHNz17hyEvUJ23iAKj-12" value="" style="endArrow=classic;startArrow=classic;html=1;rounded=0;exitX=0.5;exitY=0;exitDx=0;exitDy=0;entryX=0.235;entryY=1.006;entryDx=0;entryDy=0;entryPerimeter=0;" edge="1" parent="1" source="0xC4HbDB4452kfhdaKBw-20" target="0xC4HbDB4452kfhdaKBw-2">
          <mxGeometry width="50" height="50" relative="1" as="geometry">
            <mxPoint x="435" y="530" as="sourcePoint" />
            <mxPoint x="435" y="480" as="targetPoint" />
          </mxGeometry>
        </mxCell>
        <mxCell id="_fzHNz17hyEvUJ23iAKj-13" value="" style="endArrow=classic;html=1;rounded=0;entryX=0.5;entryY=1;entryDx=0;entryDy=0;exitX=0.822;exitY=0;exitDx=0;exitDy=0;exitPerimeter=0;" edge="1" parent="1" source="0xC4HbDB4452kfhdaKBw-2" target="0xC4HbDB4452kfhdaKBw-44">
          <mxGeometry width="50" height="50" relative="1" as="geometry">
            <mxPoint x="697" y="180" as="sourcePoint" />
            <mxPoint x="730" y="130" as="targetPoint" />
          </mxGeometry>
        </mxCell>
      </root>
    </mxGraphModel>
  </diagram>
</mxfile>
